<svg width="6" height="4" viewBox="0 0 6 4" fill="none" xmlns="http://www.w3.org/2000/svg">
<path d="M5.92008 0.829091L3.19295 3.55623C3.16762 3.58158 3.13754 3.6017 3.10443 3.61542C3.07133 3.62915 3.03584 3.63621 3 3.63621C2.96416 3.63621 2.92867 3.62915 2.89557 3.61542C2.86246 3.6017 2.83238 3.58158 2.80705 3.55623L0.0799203 0.829091C0.0287482 0.777919 0 0.708515 0 0.636146C0 0.563778 0.0287482 0.494374 0.0799203 0.443201C0.131092 0.392029 0.200497 0.363281 0.272865 0.363281C0.345233 0.363281 0.414638 0.392029 0.46581 0.443201L3 2.97773L5.53419 0.443201C5.55953 0.417864 5.58961 0.397765 5.62271 0.384052C5.65582 0.370339 5.6913 0.363281 5.72713 0.363281C5.76297 0.363281 5.79845 0.370339 5.83156 0.384052C5.86466 0.397765 5.89474 0.417864 5.92008 0.443201C5.94542 0.468539 5.96552 0.49862 5.97923 0.531725C5.99294 0.564831 6 0.600313 6 0.636146C6 0.67198 5.99294 0.707462 5.97923 0.740567C5.96552 0.773673 5.94542 0.803753 5.92008 0.829091Z" fill="white"/>
</svg>
