<svg width="27" height="26" viewBox="0 0 27 26" fill="none" xmlns="http://www.w3.org/2000/svg">
<path d="M21.0834 17.3333H18.348C18.1865 17.3335 18.0271 17.3701 17.8817 17.4404C17.7364 17.5108 17.6087 17.613 17.5084 17.7396L14.3397 21.6938C14.2382 21.8207 14.1094 21.9231 13.963 21.9935C13.8165 22.0639 13.6561 22.1005 13.4936 22.1005C13.3311 22.1005 13.1707 22.0639 13.0242 21.9935C12.8777 21.9231 12.749 21.8207 12.6475 21.6938L9.47875 17.7396C9.37831 17.6129 9.25052 17.5105 9.10494 17.4402C8.95936 17.3698 8.79977 17.3333 8.63808 17.3333H5.91675C4.11625 17.3333 2.66675 15.8838 2.66675 14.0833V6.5C2.66675 4.6995 4.11625 3.25 5.91675 3.25H21.0834C22.885 3.25 24.3334 4.6995 24.3334 6.5V14.0833C24.3334 15.8838 22.885 17.3333 21.0834 17.3333Z" fill="#AEAEB2"/>
</svg>
