<svg width="8" height="15" viewBox="0 0 8 15" fill="none" xmlns="http://www.w3.org/2000/svg">
<path d="M7.84716 7.87041L0.878901 14.8593C0.77983 14.9519 0.648794 15.0023 0.5134 14.9999C0.378006 14.9975 0.248825 14.9425 0.153072 14.8465C0.0573193 14.7504 0.00247029 14.6209 8.14212e-05 14.4851C-0.00230745 14.3493 0.0479503 14.2179 0.140266 14.1185L6.73833 7.5L0.140266 0.881505C0.0479503 0.78214 -0.00230745 0.650716 8.14212e-05 0.514921C0.00247029 0.379126 0.0573193 0.249562 0.153072 0.153525C0.248825 0.0574885 0.378006 0.00247761 0.5134 8.16635e-05C0.648794 -0.00231428 0.77983 0.0480918 0.878901 0.140681L7.84716 7.12959C7.94503 7.22787 8 7.36109 8 7.5C8 7.63891 7.94503 7.77213 7.84716 7.87041Z" fill="#535353"/>
</svg>
