<svg width="21" height="20" viewBox="0 0 21 20" fill="none" xmlns="http://www.w3.org/2000/svg">
<path d="M20.5 16.3283V9.5388C20.5 8.88489 20.4994 8.55775 20.4182 8.25347C20.3462 7.98381 20.2281 7.72863 20.0682 7.49804C19.8878 7.23783 19.6369 7.02204 19.1343 6.59144L13.1343 1.45154C12.201 0.652064 11.7344 0.252526 11.2092 0.100481C10.7465 -0.0334936 10.2533 -0.0334936 9.79053 0.100481C9.26577 0.252412 8.79981 0.651571 7.86795 1.44984L1.86597 6.59144C1.3633 7.02205 1.11255 7.23783 0.932129 7.49804C0.77224 7.72863 0.653185 7.98381 0.581214 8.25347C0.5 8.55775 0.5 8.88488 0.5 9.5388V16.3283C0.5 17.4687 0.5 18.0387 0.690301 18.4885C0.944036 19.0882 1.4304 19.5653 2.04297 19.8137C2.5024 20 3.08482 20 4.24968 20C5.41453 20 5.9976 20 6.45703 19.8137C7.0696 19.5653 7.55584 19.0883 7.80957 18.4886C7.99987 18.0388 8 17.4686 8 16.3282V15.1044C8 13.7526 9.11929 12.6568 10.5 12.6568C11.8807 12.6568 13 13.7526 13 15.1044V16.3282C13 17.4686 13 18.0388 13.1903 18.4886C13.444 19.0883 13.9304 19.5653 14.543 19.8137C15.0024 20 15.5848 20 16.7497 20C17.9145 20 18.4976 20 18.957 19.8137C19.5696 19.5653 20.0558 19.0882 20.3096 18.4885C20.4999 18.0387 20.5 17.4687 20.5 16.3283Z" fill="#AEAEB2"/>
</svg>
