<svg width="11" height="12" viewBox="0 0 11 12" fill="none" xmlns="http://www.w3.org/2000/svg">
<path d="M5.50125 9.25618L8.13293 10.939C8.20121 10.9821 8.28025 11.0032 8.36005 10.9996C8.43985 10.996 8.51684 10.9679 8.58128 10.9188C8.64572 10.8697 8.69472 10.8019 8.7221 10.7239C8.74947 10.6458 8.75398 10.5611 8.73506 10.4804L8.01943 7.34029L10.3616 5.23987C10.4213 5.18535 10.4644 5.11383 10.4854 5.03416C10.5065 4.95448 10.5047 4.87013 10.4802 4.79152C10.4557 4.7129 10.4096 4.64348 10.3476 4.5918C10.2855 4.54012 10.2103 4.50846 10.1312 4.50073L7.05756 4.24067L5.87349 1.26008C5.84331 1.18318 5.79178 1.11738 5.72548 1.07106C5.65919 1.02474 5.58112 1 5.50125 1C5.42138 1 5.34331 1.02474 5.27702 1.07106C5.21072 1.11738 5.15919 1.18318 5.12901 1.26008L3.94494 4.24067L0.871284 4.50073C0.791624 4.508 0.715792 4.53952 0.653261 4.59135C0.59073 4.64318 0.544273 4.71302 0.519695 4.79215C0.495117 4.87128 0.493507 4.95618 0.515066 5.03626C0.536626 5.11633 0.580398 5.18802 0.640916 5.24237L2.98307 7.34279L2.26744 10.4804C2.24852 10.5611 2.25303 10.6458 2.2804 10.7239C2.30778 10.8019 2.35678 10.8697 2.42122 10.9188C2.48566 10.9679 2.56265 10.996 2.64245 10.9996C2.72225 11.0032 2.80129 10.9821 2.86957 10.939L5.50125 9.25618Z" stroke="#888888" stroke-width="0.7" stroke-linecap="round" stroke-linejoin="round"/>
</svg>
